<svg xmlns="http://www.w3.org/2000/svg" width="74" height="74" viewBox="0 0 74 74">
  <g id="info" transform="translate(-4 -5)">
    <path id="Path_45" data-name="Path 45" d="M241.5,110.084a3.416,3.416,0,1,1-3.416-3.416A3.416,3.416,0,0,1,241.5,110.084Zm0,0" transform="translate(-197.084 -89.584)" fill="#50bf4d"/>
    <path id="Path_46" data-name="Path 46" d="M211.209,226.166a2.563,2.563,0,0,1-2.563-2.562V197.125H205.23a2.563,2.563,0,0,1,0-5.125h5.979a2.563,2.563,0,0,1,2.562,2.563V223.6A2.563,2.563,0,0,1,211.209,226.166Zm0,0" transform="translate(-170.209 -161.25)" fill="#50bf4d"/>
    <path id="Path_48" data-name="Path 48" d="M209.938,378.457H194.563a2.563,2.563,0,0,1,0-5.125h15.375a2.563,2.563,0,0,1,0,5.125Zm0,0" transform="translate(-161.25 -313.541)" fill="#50bf4d"/>
    <g id="Ellipse_16" data-name="Ellipse 16" transform="translate(4 5)" fill="none" stroke="#707070" stroke-width="5">
      <circle cx="37" cy="37" r="37" stroke="none"/>
      <circle cx="37" cy="37" r="34.5" fill="none"/>
    </g>
  </g>
</svg>
